# xmcd CD database file
#
# Track frame offsets:
#	150
#	12444
#	26517
#	41976
#	56008
#	67335
#	79943
#	93176
#	106855
#	119316
#	134327
#	147678
#	162116
#	177105
#	191116
#	205356
#	219946
#	232103
#	247066
#	261727
#
# Disc length: 3680 seconds
#
# Revision: 0
# Processed by: cddbd v1.5.2PL0 Copyright (c) Steve Scherf et al.
# Submitted via: CDex 1.70beta2
#
DISCID=370e5e14
DTITLE=Ella Fitzgerald - SimplyElla - Disk Two
DYEAR=2010
DGENRE=Jazz
TTITLE0=Baby, Its Cold Outside
TTITLE1=Dream A Little Dream Of Me
TTITLE2=I Got A Guy
TTITLE3=Rhythm And Romance
TTITLE4=Take Another Guess, Oh Yes
TTITLE5=Ella
TTITLE6=I Got It Bad And That Aint Good
TTITLE7=My Heart And I Decided
TTITLE8=Im Begining To See The Light
TTITLE9=Thats The Way It Is
TTITLE10=Im Just A Lucky So And So
TTITLE11=Looking For A Boy
TTITLE12=My One And Only, What Am I Gonna Do
TTITLE13=Black Coffee
TTITLE14=Smooth Sailing
TTITLE15=Holiday In Harlem
TTITLE16=Stone Cold Dead In The Market
TTITLE17=I Still Feel The Same About You
TTITLE18=Dedicated To You
TTITLE19=Goodnight My Love
EXTD=YEAR: 2010
EXTT0=
EXTT1=
EXTT2=
EXTT3=
EXTT4=
EXTT5=
EXTT6=
EXTT7=
EXTT8=
EXTT9=
EXTT10=
EXTT11=
EXTT12=
EXTT13=
EXTT14=
EXTT15=
EXTT16=
EXTT17=
EXTT18=
EXTT19=
PLAYORDER=
